<svg width="12" height="14" viewBox="0 0 12 14" fill="none" xmlns="http://www.w3.org/2000/svg">
<path d="M2.93921 6.43166H4.16141V7.65386H2.93921V6.43166ZM2.93921 8.87607H4.16141V10.0983H2.93921V8.87607ZM5.38362 6.43166H6.60583V7.65386H5.38362V6.43166ZM5.38362 8.87607H6.60583V10.0983H5.38362V8.87607ZM7.82803 6.43166H9.05024V7.65386H7.82803V6.43166ZM7.82803 8.87607H9.05024V10.0983H7.82803V8.87607Z" fill="#A1A4AC"/>
<path d="M1.71598 13.1529H10.2714C10.9455 13.1529 11.4936 12.6047 11.4936 11.9307V4.59743V3.37523C11.4936 2.70118 10.9455 2.15302 10.2714 2.15302H9.04921V0.930817H7.82701V2.15302H4.16039V0.930817H2.93819V2.15302H1.71598C1.04193 2.15302 0.493774 2.70118 0.493774 3.37523V4.59743V11.9307C0.493774 12.6047 1.04193 13.1529 1.71598 13.1529ZM10.2714 4.59743L10.272 11.9307H1.71598V4.59743H10.2714Z" fill="#A1A4AC"/>
</svg>
