<svg width="206" height="55" viewBox="0 0 206 55" fill="none" xmlns="http://www.w3.org/2000/svg">
<path fill-rule="evenodd" clip-rule="evenodd" d="M11 45C11 42.7908 12.7909 41 15 41V41C17.2091 41 19 42.7908 19 45V51C19 53.2091 17.2091 55 15 55V55C12.7909 55 11 53.2091 11 51V45Z" fill="url(#paint0_linear_1_375)"/>
<path fill-rule="evenodd" clip-rule="evenodd" d="M0 43C0 40.7908 1.79086 39 4 39V39C6.20914 39 8 40.7908 8 43V51C8 53.2091 6.20914 55 4 55V55C1.79086 55 0 53.2091 0 51V43Z" fill="url(#paint1_linear_1_375)"/>
<path fill-rule="evenodd" clip-rule="evenodd" d="M22 42C22 39.7908 23.7909 38 26 38V38C28.2091 38 30 39.7908 30 42V51C30 53.2091 28.2091 55 26 55V55C23.7909 55 22 53.2091 22 51V42Z" fill="url(#paint2_linear_1_375)"/>
<path fill-rule="evenodd" clip-rule="evenodd" d="M77 50C77 47.7908 78.7909 46 81 46V46C83.2091 46 85 47.7908 85 50V51C85 53.2091 83.2091 55 81 55V55C78.7909 55 77 53.2091 77 51V50Z" fill="url(#paint3_linear_1_375)"/>
<path fill-rule="evenodd" clip-rule="evenodd" d="M33 36C33 33.7908 34.7909 32 37 32V32C39.2091 32 41 33.7908 41 36V51C41 53.2091 39.2091 55 37 55V55C34.7909 55 33 53.2091 33 51V36Z" fill="url(#paint4_linear_1_375)"/>
<path fill-rule="evenodd" clip-rule="evenodd" d="M44 39C44 36.7908 45.7909 35 48 35V35C50.2091 35 52 36.7908 52 39V51C52 53.2091 50.2091 55 48 55V55C45.7909 55 44 53.2091 44 51V39Z" fill="url(#paint5_linear_1_375)"/>
<path fill-rule="evenodd" clip-rule="evenodd" d="M55 38C55 35.7908 56.7909 34 59 34V34C61.2091 34 63 35.7908 63 38V51C63 53.2091 61.2091 55 59 55V55C56.7909 55 55 53.2091 55 51V38Z" fill="url(#paint6_linear_1_375)"/>
<path fill-rule="evenodd" clip-rule="evenodd" d="M66 42C66 39.7908 67.7909 38 70 38V38C72.2091 38 74 39.7908 74 42V51C74 53.2091 72.2091 55 70 55V55C67.7909 55 66 53.2091 66 51V42Z" fill="url(#paint7_linear_1_375)"/>
<path fill-rule="evenodd" clip-rule="evenodd" d="M187 42C187 39.7908 188.791 38 191 38V38C193.209 38 195 39.7908 195 42V51C195 53.2091 193.209 55 191 55V55C188.791 55 187 53.2091 187 51V42Z" fill="url(#paint8_linear_1_375)"/>
<path fill-rule="evenodd" clip-rule="evenodd" d="M198 37C198 34.7908 199.791 33 202 33V33C204.209 33 206 34.7908 206 37V51C206 53.2091 204.209 55 202 55V55C199.791 55 198 53.2091 198 51V37Z" fill="url(#paint9_linear_1_375)"/>
<path fill-rule="evenodd" clip-rule="evenodd" d="M88 32C88 29.7908 89.7909 28 92 28V28C94.2091 28 96 29.7908 96 32V51C96 53.2091 94.2091 55 92 55V55C89.7909 55 88 53.2091 88 51V32Z" fill="url(#paint10_linear_1_375)"/>
<path fill-rule="evenodd" clip-rule="evenodd" d="M99 30C99 27.7908 100.791 26 103 26V26C105.209 26 107 27.7908 107 30V51C107 53.2091 105.209 55 103 55V55C100.791 55 99 53.2091 99 51V30Z" fill="url(#paint11_linear_1_375)"/>
<path fill-rule="evenodd" clip-rule="evenodd" d="M176 28C176 25.7908 177.791 24 180 24V24C182.209 24 184 25.7908 184 28V51C184 53.2091 182.209 55 180 55V55C177.791 55 176 53.2091 176 51V28Z" fill="url(#paint12_linear_1_375)"/>
<path fill-rule="evenodd" clip-rule="evenodd" d="M132 24C132 21.7908 133.791 20 136 20V20C138.209 20 140 21.7908 140 24V51C140 53.2091 138.209 55 136 55V55C133.791 55 132 53.2091 132 51V24Z" fill="url(#paint13_linear_1_375)"/>
<path fill-rule="evenodd" clip-rule="evenodd" d="M121 17C121 14.7908 122.791 13 125 13V13C127.209 13 129 14.7908 129 17V51C129 53.2091 127.209 55 125 55V55C122.791 55 121 53.2091 121 51V17Z" fill="url(#paint14_linear_1_375)"/>
<path fill-rule="evenodd" clip-rule="evenodd" d="M143 9.99997C143 7.79083 144.791 5.99997 147 5.99997V5.99997C149.209 5.99997 151 7.79083 151 9.99997V51C151 53.2091 149.209 55 147 55V55C144.791 55 143 53.2091 143 51V9.99997Z" fill="url(#paint15_linear_1_375)"/>
<path fill-rule="evenodd" clip-rule="evenodd" d="M165 15C165 12.7908 166.791 11 169 11V11C171.209 11 173 12.7908 173 15V51C173 53.2091 171.209 55 169 55V55C166.791 55 165 53.2091 165 51V15Z" fill="url(#paint16_linear_1_375)"/>
<path fill-rule="evenodd" clip-rule="evenodd" d="M154 3.99997C154 1.79083 155.791 -3.05176e-05 158 -3.05176e-05V-3.05176e-05C160.209 -3.05176e-05 162 1.79083 162 3.99997V51C162 53.2091 160.209 55 158 55V55C155.791 55 154 53.2091 154 51V3.99997Z" fill="url(#paint17_linear_1_375)"/>
<path fill-rule="evenodd" clip-rule="evenodd" d="M110 36C110 33.7908 111.791 32 114 32V32C116.209 32 118 33.7908 118 36V51C118 53.2091 116.209 55 114 55V55C111.791 55 110 53.2091 110 51V36Z" fill="url(#paint18_linear_1_375)"/>
<defs>
<linearGradient id="paint0_linear_1_375" x1="11" y1="41" x2="11" y2="55" gradientUnits="userSpaceOnUse">
<stop stop-color="#623CE7"/>
<stop offset="1" stop-color="#9C3CE7"/>
</linearGradient>
<linearGradient id="paint1_linear_1_375" x1="0" y1="39" x2="0" y2="55" gradientUnits="userSpaceOnUse">
<stop stop-color="#623CE7"/>
<stop offset="1" stop-color="#9C3CE7"/>
</linearGradient>
<linearGradient id="paint2_linear_1_375" x1="22" y1="38" x2="22" y2="55" gradientUnits="userSpaceOnUse">
<stop stop-color="#623CE7"/>
<stop offset="1" stop-color="#9C3CE7"/>
</linearGradient>
<linearGradient id="paint3_linear_1_375" x1="77" y1="46" x2="77" y2="55" gradientUnits="userSpaceOnUse">
<stop stop-color="#623CE7"/>
<stop offset="1" stop-color="#9C3CE7"/>
</linearGradient>
<linearGradient id="paint4_linear_1_375" x1="33" y1="32" x2="33" y2="55" gradientUnits="userSpaceOnUse">
<stop stop-color="#623CE7"/>
<stop offset="1" stop-color="#9C3CE7"/>
</linearGradient>
<linearGradient id="paint5_linear_1_375" x1="44" y1="35" x2="44" y2="55" gradientUnits="userSpaceOnUse">
<stop stop-color="#623CE7"/>
<stop offset="1" stop-color="#9C3CE7"/>
</linearGradient>
<linearGradient id="paint6_linear_1_375" x1="55" y1="34" x2="55" y2="55" gradientUnits="userSpaceOnUse">
<stop stop-color="#623CE7"/>
<stop offset="1" stop-color="#9C3CE7"/>
</linearGradient>
<linearGradient id="paint7_linear_1_375" x1="66" y1="38" x2="66" y2="55" gradientUnits="userSpaceOnUse">
<stop stop-color="#623CE7"/>
<stop offset="1" stop-color="#9C3CE7"/>
</linearGradient>
<linearGradient id="paint8_linear_1_375" x1="187" y1="38" x2="187" y2="55" gradientUnits="userSpaceOnUse">
<stop stop-color="#623CE7"/>
<stop offset="1" stop-color="#9C3CE7"/>
</linearGradient>
<linearGradient id="paint9_linear_1_375" x1="198" y1="33" x2="198" y2="55" gradientUnits="userSpaceOnUse">
<stop stop-color="#623CE7"/>
<stop offset="1" stop-color="#9C3CE7"/>
</linearGradient>
<linearGradient id="paint10_linear_1_375" x1="88" y1="28" x2="88" y2="55" gradientUnits="userSpaceOnUse">
<stop stop-color="#623CE7"/>
<stop offset="1" stop-color="#9C3CE7"/>
</linearGradient>
<linearGradient id="paint11_linear_1_375" x1="99" y1="26" x2="99" y2="55" gradientUnits="userSpaceOnUse">
<stop stop-color="#623CE7"/>
<stop offset="1" stop-color="#9C3CE7"/>
</linearGradient>
<linearGradient id="paint12_linear_1_375" x1="176" y1="24" x2="176" y2="55" gradientUnits="userSpaceOnUse">
<stop stop-color="#623CE7"/>
<stop offset="1" stop-color="#9C3CE7"/>
</linearGradient>
<linearGradient id="paint13_linear_1_375" x1="132" y1="20" x2="132" y2="55" gradientUnits="userSpaceOnUse">
<stop stop-color="#623CE7"/>
<stop offset="1" stop-color="#9C3CE7"/>
</linearGradient>
<linearGradient id="paint14_linear_1_375" x1="121" y1="13" x2="121" y2="55" gradientUnits="userSpaceOnUse">
<stop stop-color="#623CE7"/>
<stop offset="1" stop-color="#9C3CE7"/>
</linearGradient>
<linearGradient id="paint15_linear_1_375" x1="143" y1="5.99997" x2="143" y2="55" gradientUnits="userSpaceOnUse">
<stop stop-color="#623CE7"/>
<stop offset="1" stop-color="#9C3CE7"/>
</linearGradient>
<linearGradient id="paint16_linear_1_375" x1="165" y1="11" x2="165" y2="55" gradientUnits="userSpaceOnUse">
<stop stop-color="#623CE7"/>
<stop offset="1" stop-color="#9C3CE7"/>
</linearGradient>
<linearGradient id="paint17_linear_1_375" x1="154" y1="-3.05176e-05" x2="154" y2="55" gradientUnits="userSpaceOnUse">
<stop stop-color="#623CE7"/>
<stop offset="1" stop-color="#9C3CE7"/>
</linearGradient>
<linearGradient id="paint18_linear_1_375" x1="110" y1="32" x2="110" y2="55" gradientUnits="userSpaceOnUse">
<stop stop-color="#623CE7"/>
<stop offset="1" stop-color="#9C3CE7"/>
</linearGradient>
</defs>
</svg>
