<svg width="30" height="28" viewBox="0 0 30 28" fill="none" xmlns="http://www.w3.org/2000/svg">
<path fill-rule="evenodd" clip-rule="evenodd" d="M7.03972 21.8476C7.3093 21.623 7.6491 21.5 8 21.5H19C19.8284 21.5 20.5 20.8284 20.5 20V9.99997C20.5 9.17154 19.8284 8.49997 19 8.49997H5C4.17157 8.49997 3.5 9.17154 3.5 9.99997V23.7299C3.5 24.1538 3.99443 24.3854 4.32009 24.114L7.03972 21.8476ZM8 23H19C20.6569 23 22 21.6568 22 20V9.99997C22 8.34312 20.6569 6.99997 19 6.99997H5C3.34315 6.99997 2 8.34312 2 9.99997V23.7299C2 25.4256 3.97771 26.3519 5.28037 25.2663L8 23Z" fill="#A9B8CD"/>
<path fill-rule="evenodd" clip-rule="evenodd" d="M7.25 13C7.25 12.5858 7.58579 12.25 8 12.25H16C16.4142 12.25 16.75 12.5858 16.75 13C16.75 13.4142 16.4142 13.75 16 13.75H8C7.58579 13.75 7.25 13.4142 7.25 13Z" fill="#A9B8CD"/>
<path fill-rule="evenodd" clip-rule="evenodd" d="M7.25 17C7.25 16.5858 7.58579 16.25 8 16.25H12C12.4142 16.25 12.75 16.5858 12.75 17C12.75 17.4142 12.4142 17.75 12 17.75H8C7.58579 17.75 7.25 17.4142 7.25 17Z" fill="#A9B8CD"/>
<circle cx="26.5" cy="3.49997" r="3.5" fill="#623CE7"/>
</svg>
