<svg width="29" height="17" viewBox="0 0 29 17" fill="none" xmlns="http://www.w3.org/2000/svg">
<path d="M8.5 17C13.1944 17 17 13.1944 17 8.49997C17 3.80555 13.1944 -3.05176e-05 8.5 -3.05176e-05C3.80558 -3.05176e-05 0 3.80555 0 8.49997C0 13.1944 3.80558 17 8.5 17Z" fill="#F0F0F0"/>
<path d="M1.75702 3.32501C1.08933 4.19371 0.585875 5.19495 0.292725 6.28265H4.71465L1.75702 3.32501Z" fill="#0052B4"/>
<path d="M16.707 6.28267C16.4139 5.19501 15.9104 4.19377 15.2427 3.32507L12.2852 6.28267H16.707Z" fill="#0052B4"/>
<path d="M0.292725 10.7174C0.585908 11.8051 1.08937 12.8063 1.75702 13.675L4.71455 10.7174H0.292725Z" fill="#0052B4"/>
<path d="M13.6749 1.75714C12.8062 1.08946 11.805 0.586 10.7173 0.292816V4.71471L13.6749 1.75714Z" fill="#0052B4"/>
<path d="M3.32495 15.2429C4.19364 15.9106 5.19488 16.414 6.28255 16.7072V12.2853L3.32495 15.2429Z" fill="#0052B4"/>
<path d="M6.28252 0.292816C5.19485 0.586 4.19361 1.08946 3.32495 1.75711L6.28252 4.71468V0.292816Z" fill="#0052B4"/>
<path d="M10.7173 16.7072C11.805 16.414 12.8062 15.9106 13.6749 15.2429L10.7173 12.2853V16.7072Z" fill="#0052B4"/>
<path d="M12.2852 10.7174L15.2427 13.675C15.9104 12.8064 16.4139 11.8051 16.707 10.7174H12.2852Z" fill="#0052B4"/>
<path d="M16.928 7.39128H9.60875H9.60872V0.0719207C9.24578 0.0246726 8.87576 -3.05176e-05 8.5 -3.05176e-05C8.12417 -3.05176e-05 7.75422 0.0246726 7.39131 0.0719207V7.39122V7.39125H0.0719512C0.0247031 7.75419 0 8.12421 0 8.49997C0 8.8758 0.0247031 9.24574 0.0719512 9.60865H7.39125H7.39128V16.928C7.75422 16.9753 8.12417 17 8.5 17C8.87576 17 9.24578 16.9753 9.60869 16.928V9.60872V9.60869H16.928C16.9753 9.24574 17 8.8758 17 8.49997C17 8.12421 16.9753 7.75419 16.928 7.39128Z" fill="#D80027"/>
<path d="M10.7173 10.7174L14.5103 14.5104C14.6847 14.336 14.8511 14.1537 15.0099 13.9647L11.7626 10.7174H10.7173V10.7174Z" fill="#D80027"/>
<path d="M6.28253 10.7174H6.28246L2.4895 14.5104C2.66388 14.6848 2.8462 14.8512 3.0352 15.01L6.28253 11.7626V10.7174Z" fill="#D80027"/>
<path d="M6.28262 6.28265V6.28259L2.48963 2.48956C2.31518 2.66395 2.14877 2.84626 1.98999 3.03526L5.23736 6.28262H6.28262V6.28265Z" fill="#D80027"/>
<path d="M10.7173 6.28266L14.5103 2.4896C14.3359 2.31515 14.1536 2.14873 13.9646 1.98999L10.7173 5.23736V6.28266V6.28266Z" fill="#D80027"/>
<path d="M11.5 8.49996C11.5 9.53968 11.687 10.5356 12.0287 11.4565L20 12.1956L27.9713 11.4565C28.313 10.5356 28.5 9.53968 28.5 8.49996C28.5 7.46024 28.313 6.46428 27.9713 5.54346L20 4.80432L12.0287 5.54346C11.687 6.46428 11.5 7.46024 11.5 8.49996Z" fill="#FFDA44"/>
<path d="M27.9714 5.54346C26.7704 2.30669 23.6548 -3.05176e-05 20.0001 -3.05176e-05C16.3454 -3.05176e-05 13.2298 2.30669 12.0288 5.54346H27.9714Z" fill="#D80027"/>
<path d="M12.0288 11.4565C13.2298 14.6933 16.3454 17 20.0001 17C23.6548 17 26.7704 14.6933 27.9714 11.4565H12.0288Z" fill="#D80027"/>
</svg>
