<svg width="14" height="14" viewBox="0 0 14 14" fill="none" xmlns="http://www.w3.org/2000/svg">
<path fill-rule="evenodd" clip-rule="evenodd" d="M6.99906 1.99998L6.20648 1.00925C5.8647 0.582019 5.34723 0.333313 4.80011 0.333313H4.66573C3.74526 0.333313 2.99906 1.07951 2.99906 1.99998C2.99906 2.23701 3.04855 2.46249 3.13775 2.66665H1.66573C0.929351 2.66665 0.332397 3.2636 0.332397 3.99998V5.99998C0.332397 6.4935 0.60053 6.9244 0.999064 7.15494V11.6666C0.999064 12.7712 1.8945 13.6666 2.99906 13.6666H10.9991C12.1036 13.6666 12.9991 12.7712 12.9991 11.6666V7.15494C13.3976 6.9244 13.6657 6.4935 13.6657 5.99998V3.99998C13.6657 3.2636 13.0688 2.66665 12.3324 2.66665H10.8604C10.9496 2.46249 10.9991 2.23701 10.9991 1.99998C10.9991 1.07951 10.2529 0.333313 9.3324 0.333313H9.19802C8.6509 0.333313 8.13343 0.582019 7.79165 1.00925L6.99906 1.99998ZM7.74636 2.66665H9.3324C9.70059 2.66665 9.99906 2.36817 9.99906 1.99998C9.99906 1.63179 9.70059 1.33331 9.3324 1.33331H9.19802C8.95468 1.33331 8.72453 1.44393 8.57251 1.63395L7.74636 2.66665ZM1.66573 3.66665C1.48164 3.66665 1.3324 3.81589 1.3324 3.99998V5.99998C1.3324 6.18407 1.48164 6.33331 1.66573 6.33331H6.49906V3.66665H1.66573ZM7.49906 3.66665V6.33331H12.3324C12.5165 6.33331 12.6657 6.18407 12.6657 5.99998V3.99998C12.6657 3.81589 12.5165 3.66665 12.3324 3.66665H7.49906ZM3.99906 1.99998C3.99906 2.36817 4.29754 2.66665 4.66573 2.66665H6.25177L5.42561 1.63395C5.2736 1.44393 5.04345 1.33331 4.80011 1.33331H4.66573C4.29754 1.33331 3.99906 1.63179 3.99906 1.99998ZM6.49906 7.33331H1.99906V11.6666C1.99906 12.2189 2.44678 12.6666 2.99906 12.6666H6.49906V7.33331ZM7.49906 12.6666V7.33331H11.9991V11.6666C11.9991 12.2189 11.5513 12.6666 10.9991 12.6666H7.49906Z" fill="#623CE7"/>
</svg>
