<svg width="31" height="32" viewBox="0 0 31 32" fill="none" xmlns="http://www.w3.org/2000/svg">
<path d="M29.8006 13.2853L26.3882 12.7057C26.1946 12.0947 25.9381 11.5151 25.6476 10.9354L27.6429 8.13546C27.9321 7.71678 27.9007 7.13717 27.5461 6.78389L24.8103 4.04803C24.4557 3.69346 23.8774 3.62935 23.4587 3.95122L20.6587 5.94653C20.1118 5.65735 19.4995 5.39961 18.8885 5.20598L18.3416 1.82639C18.2447 1.31089 17.8261 0.957611 17.3118 0.957611H13.4495C12.934 0.957611 12.5166 1.31218 12.4197 1.82639L11.8401 5.23881C11.2291 5.43243 10.6495 5.68891 10.0699 5.97936L7.26989 3.98405C6.85121 3.69487 6.27159 3.7263 5.91831 4.08086L3.18246 6.81672C2.82789 7.17128 2.76378 7.74961 3.08565 8.16829L5.08096 10.9683C4.79178 11.5152 4.53404 12.1275 4.34041 12.7385L0.96082 13.2854C0.445321 13.3823 0.092041 13.8009 0.092041 14.3152V18.1775C0.092041 18.693 0.446608 19.1104 0.96082 19.2073L4.37324 19.7869C4.56686 20.3979 4.82333 20.9775 5.11379 21.5571L3.11848 24.3571C2.8293 24.7758 2.86073 25.3554 3.21529 25.7087L5.95115 28.4445C6.30571 28.7991 6.88404 28.8632 7.30272 28.5413L10.1027 26.546C10.6496 26.8352 11.2619 27.0929 11.873 27.2866L12.4526 30.699C12.5494 31.2145 12.9681 31.5678 13.4823 31.5678H17.3447C17.8602 31.5678 18.2776 31.2132 18.3744 30.699L18.9213 27.2541C19.5323 27.0605 20.1119 26.804 20.6916 26.5135L23.4915 28.5088C23.9102 28.798 24.4898 28.7666 24.8431 28.412L27.579 25.6762C27.9335 25.3216 27.9976 24.7433 27.6758 24.3246L25.6805 21.5246C25.9696 20.9777 26.2274 20.3654 26.421 19.7544L29.8334 19.1747C30.3489 19.0779 30.7022 18.6592 30.7022 18.145V14.3155C30.6695 13.8 30.315 13.3826 29.8007 13.2858L29.8006 13.2853ZM15.3807 21.7507C12.323 21.7507 9.87616 19.2726 9.87616 16.2462C9.87616 13.1884 12.3543 10.7416 15.3807 10.7416C18.4057 10.7416 20.8852 13.1883 20.8852 16.2462C20.8852 19.304 18.4386 21.7507 15.3807 21.7507Z" fill="#623CE7"/>
<path fill-rule="evenodd" clip-rule="evenodd" d="M15.3983 12.983C17.2099 12.983 18.6787 14.4518 18.6787 16.2619C18.6787 18.0735 17.2099 19.5423 15.3983 19.5423C13.5867 19.5423 12.1194 18.0735 12.1194 16.2619C12.1194 14.4504 13.5882 12.983 15.3983 12.983ZM17.2257 16.2634C17.2257 15.2507 16.4095 14.436 15.3983 14.436C14.3857 14.436 13.5709 15.2522 13.5709 16.2634C13.5709 17.276 14.3871 18.0908 15.3983 18.0908C16.411 18.0908 17.2257 17.2746 17.2257 16.2634Z" fill="#FF2F5E"/>
</svg>
