<svg width="16" height="15" viewBox="0 0 16 15" fill="none" xmlns="http://www.w3.org/2000/svg">
<path d="M5.3489 12.7659H3.4392C3.01732 12.7659 2.67532 12.4239 2.67532 12.002V4.36324M2.67532 4.36324H1.5295C1.10763 4.36324 0.765625 4.02124 0.765625 3.59936V1.68966C0.765625 1.26778 1.10763 0.925781 1.5295 0.925781H13.7516C14.1734 0.925781 14.5154 1.26778 14.5154 1.68966V3.59936C14.5154 4.02124 14.1734 4.36324 13.7516 4.36324H12.6057M2.67532 4.36324H12.6057M12.6057 4.36324V12.002C12.6057 12.4239 12.2637 12.7659 11.8419 12.7659H10.3141M7.64053 6.27293V13.1478M7.64053 13.1478L5.3489 10.4743M7.64053 13.1478L9.93217 10.4743" stroke="#313131" stroke-width="1.14582"/>
</svg>
