<svg width="21" height="31" viewBox="0 0 21 31" fill="none" xmlns="http://www.w3.org/2000/svg">
<path d="M7.82597 2.96893H13.6131C14.4143 2.96893 15.0599 2.32324 15.0599 1.52211C15.0599 0.720978 14.4143 0.0752869 13.6131 0.0752869H7.82597C7.02484 0.0752869 6.37915 0.720978 6.37915 1.52211C6.37915 2.32324 7.03081 2.96893 7.82597 2.96893Z" fill="#623CE7"/>
<path d="M17.9546 4.41611H3.48638C1.89012 4.41611 0.592773 5.71346 0.592773 7.30972V27.559C0.592773 29.1552 1.89012 30.4526 3.48638 30.4526H17.9546C19.5508 30.4526 20.8482 29.1552 20.8482 27.559V7.30972C20.8422 5.71346 19.5449 4.41611 17.9546 4.41611V4.41611ZM3.48638 27.5531V7.30969H17.9546V27.5589H3.48638V27.5531Z" fill="#623CE7"/>
<path d="M14.4855 15.9892H12.6859C12.3691 15.9892 12.112 15.7321 12.112 15.4152V9.29934C12.112 8.70746 11.3348 8.49821 11.0418 9.01237L6.45643 18.0102C6.23523 18.3929 6.51622 18.8711 6.95265 18.8711H8.66851C8.98539 18.8711 9.24245 19.1282 9.24245 19.4451V25.4955C9.24245 26.0874 10.0197 26.2966 10.3126 25.7825L14.9758 16.8504C15.197 16.4678 14.922 15.9895 14.4855 15.9895L14.4855 15.9892Z" fill="#FF2F5E"/>
</svg>
