<svg width="53" height="53" viewBox="0 0 53 53" fill="none" xmlns="http://www.w3.org/2000/svg">
<circle cx="26.5" cy="26.5" r="26.5" fill="#FFF0E6"/>
<path fill-rule="evenodd" clip-rule="evenodd" d="M26.5 16.75C26.9142 16.75 27.25 17.0858 27.25 17.5V18.5347C31.0697 18.8898 34.1102 21.9303 34.4653 25.75H35.5C35.9142 25.75 36.25 26.0858 36.25 26.5C36.25 26.9142 35.9142 27.25 35.5 27.25H34.4653C34.1102 31.0696 31.0697 34.1101 27.25 34.4653V35.5C27.25 35.9142 26.9142 36.25 26.5 36.25C26.0858 36.25 25.75 35.9142 25.75 35.5V34.4653C21.9303 34.1101 18.8898 31.0696 18.5347 27.25H17.5C17.0858 27.25 16.75 26.9142 16.75 26.5C16.75 26.0858 17.0858 25.75 17.5 25.75H18.5347C18.8898 21.9303 21.9303 18.8898 25.75 18.5347V17.5C25.75 17.0858 26.0858 16.75 26.5 16.75ZM26.5 33C30.0899 33 33 30.0898 33 26.5C33 22.9101 30.0899 20 26.5 20C22.9101 20 20 22.9101 20 26.5C20 30.0898 22.9101 33 26.5 33Z" fill="#FC6B21"/>
<path fill-rule="evenodd" clip-rule="evenodd" d="M26.5 28C27.3284 28 28 27.3284 28 26.5C28 25.6715 27.3284 25 26.5 25C25.6716 25 25 25.6715 25 26.5C25 27.3284 25.6716 28 26.5 28ZM26.5 29.5C28.1569 29.5 29.5 28.1568 29.5 26.5C29.5 24.8431 28.1569 23.5 26.5 23.5C24.8431 23.5 23.5 24.8431 23.5 26.5C23.5 28.1568 24.8431 29.5 26.5 29.5Z" fill="#FC6B21"/>
</svg>
