<svg width="53" height="53" viewBox="0 0 53 53" fill="none" xmlns="http://www.w3.org/2000/svg">
<circle cx="26.5" cy="26.5" r="26.5" fill="#E5F7FF"/>
<path fill-rule="evenodd" clip-rule="evenodd" d="M26.5 29C27.8807 29 29 27.8807 29 26.5C29 25.1193 27.8807 24 26.5 24C25.1193 24 24 25.1193 24 26.5C24 27.8807 25.1193 29 26.5 29ZM30.5 26.5C30.5 28.7091 28.7091 30.5 26.5 30.5C24.2909 30.5 22.5 28.7091 22.5 26.5C22.5 24.2908 24.2909 22.5 26.5 22.5C28.7091 22.5 30.5 24.2908 30.5 26.5Z" fill="#1FB9FC"/>
<path fill-rule="evenodd" clip-rule="evenodd" d="M25.4047 17.3419L25.0172 18.5045C24.6904 19.4849 23.9733 20.1793 23.2221 20.5976C23.1581 20.6333 23.0946 20.6699 23.0319 20.7076C22.2932 21.1511 21.3319 21.4256 20.3183 21.2182L19.1165 20.9723C18.9057 20.9292 18.6909 21.0258 18.5833 21.2121L17.9623 22.2877C17.8547 22.4741 17.8784 22.7084 18.0212 22.8695L18.8362 23.7886C19.5203 24.56 19.7652 25.5267 19.7516 26.3882C19.7504 26.4627 19.7504 26.5372 19.7516 26.6117C19.7652 27.4732 19.5203 28.4399 18.8362 29.2113L18.0212 30.1304C17.8784 30.2914 17.8547 30.5258 17.9623 30.7121L18.5833 31.7877C18.6909 31.9741 18.9057 32.0707 19.1165 32.0276L20.3182 31.7817C21.3318 31.5742 22.2932 31.8488 23.0318 32.2923C23.0946 32.33 23.1581 32.3667 23.2221 32.4023C23.9733 32.8206 24.6904 33.5151 25.0172 34.4954L25.4047 35.6581C25.4728 35.8623 25.6638 36 25.8791 36H27.121C27.3362 36 27.5273 35.8623 27.5954 35.6581L27.9829 34.4954C28.3097 33.5151 29.0268 32.8206 29.7779 32.4023C29.842 32.3667 29.9054 32.33 29.9682 32.2923C30.7069 31.8488 31.6682 31.5742 32.6819 31.7817L33.8835 32.0276C34.0944 32.0707 34.3092 31.9741 34.4168 31.7877L35.0377 30.7121C35.1453 30.5258 35.1216 30.2914 34.9788 30.1304L34.1639 29.2114C33.4798 28.44 33.2348 27.4732 33.2485 26.6118C33.2497 26.5373 33.2497 26.4626 33.2485 26.3881C33.2348 25.5267 33.4798 24.5599 34.1639 23.7885L34.9788 22.8695C35.1216 22.7084 35.1453 22.4741 35.0377 22.2877L34.4168 21.2122C34.3092 21.0258 34.0944 20.9292 33.8835 20.9723L32.6818 21.2182C31.6682 21.4256 30.7068 21.151 29.9682 20.7076C29.9054 20.6699 29.842 20.6333 29.7779 20.5976C29.0268 20.1793 28.3097 19.4849 27.9829 18.5045L27.5954 17.3419C27.5273 17.1377 27.3362 17 27.121 17H25.8791C25.6638 17 25.4728 17.1377 25.4047 17.3419ZM23.5941 18.0302C23.4119 18.5769 22.9959 19.0067 22.4924 19.2871C22.4141 19.3307 22.3366 19.3755 22.2598 19.4216C21.7651 19.7185 21.1843 19.8644 20.619 19.7487L19.4172 19.5028C18.5738 19.3302 17.7146 19.7166 17.2842 20.4622L16.6632 21.5377C16.2328 22.2832 16.3277 23.2206 16.8989 23.8647L17.7139 24.7838C18.0958 25.2145 18.2609 25.7888 18.2518 26.3644C18.2503 26.4547 18.2503 26.5452 18.2518 26.6355C18.2609 27.2111 18.0958 27.7854 17.7139 28.2161L16.8989 29.1352C16.3277 29.7793 16.2328 30.7166 16.6632 31.4621L17.2842 32.5377C17.7146 33.2832 18.5738 33.6697 19.4172 33.4971L20.6189 33.2512C21.1842 33.1355 21.7651 33.2813 22.2598 33.5783C22.3365 33.6244 22.4141 33.6693 22.4924 33.7129C22.9959 33.9932 23.4119 34.423 23.5941 34.9698L23.9817 36.1324C24.2539 36.9491 25.0182 37.5 25.8791 37.5H27.121C27.9819 37.5 28.7462 36.9491 29.0184 36.1324L29.4059 34.9698C29.5882 34.423 30.0042 33.9932 30.5077 33.7129C30.586 33.6693 30.6635 33.6244 30.7403 33.5783C31.235 33.2814 31.8158 33.1355 32.3811 33.2512L33.5828 33.4971C34.4262 33.6697 35.2854 33.2832 35.7158 32.5377L36.3368 31.4621C36.7672 30.7166 36.6723 29.7793 36.1011 29.1352L35.2862 28.2162C34.9042 27.7855 34.7392 27.2111 34.7483 26.6355C34.7497 26.5452 34.7497 26.4547 34.7483 26.3643C34.7392 25.7888 34.9042 25.2144 35.2862 24.7837L36.1011 23.8647C36.6723 23.2206 36.7672 22.2833 36.3368 21.5377L35.7158 20.4622C35.2854 19.7166 34.4262 19.3302 33.5828 19.5028L32.381 19.7487C31.8158 19.8643 31.2349 19.7185 30.7402 19.4216C30.6635 19.3755 30.586 19.3307 30.5077 19.2871C30.0042 19.0067 29.5882 18.5769 29.4059 18.0302L29.0184 16.8675C28.7462 16.0508 27.9819 15.5 27.121 15.5H25.8791C25.0182 15.5 24.2539 16.0508 23.9817 16.8675L23.5941 18.0302Z" fill="#1FB9FC"/>
</svg>
