<svg width="8" height="15" viewBox="0 0 8 15" fill="none" xmlns="http://www.w3.org/2000/svg">
<path d="M7.98711 4.64506V10.4008C7.98711 10.6662 7.77287 10.8804 7.50747 10.8804C7.24206 10.8804 7.02782 10.6662 7.02782 10.4008V4.64506C7.02782 3.14538 5.80953 1.92708 4.30984 1.92708C2.81015 1.92708 1.59186 3.14538 1.59186 4.64506V11.9996C1.59186 12.9685 2.38167 13.7583 3.35055 13.7583C4.31943 13.7583 5.10925 12.9685 5.10925 11.9996V5.12471C5.10925 4.68344 4.75111 4.3253 4.30984 4.3253C3.86857 4.3253 3.51043 4.68344 3.51043 5.12471V11.3601C3.51043 11.6255 3.29619 11.8397 3.03079 11.8397C2.76539 11.8397 2.55114 11.6255 2.55114 11.3601V5.12471C2.55114 4.15583 3.34096 3.36601 4.30984 3.36601C5.27872 3.36601 6.06853 4.15583 6.06853 5.12471V11.9996C6.06853 13.4993 4.85024 14.7176 3.35055 14.7176C1.85086 14.7176 0.632568 13.4993 0.632568 11.9996V4.64506C0.632568 2.61777 2.28254 0.967793 4.30984 0.967793C6.33714 0.967793 7.98711 2.61777 7.98711 4.64506Z" fill="#A1A4AC"/>
</svg>
