<svg width="8" height="15" viewBox="0 0 8 15" fill="none" xmlns="http://www.w3.org/2000/svg">
<path d="M7.6065 4.00835V9.76407C7.6065 10.0295 7.39225 10.2437 7.12685 10.2437C6.86145 10.2437 6.64721 10.0295 6.64721 9.76407V4.00835C6.64721 2.50866 5.42891 1.29036 3.92922 1.29036C2.42954 1.29036 1.21124 2.50866 1.21124 4.00835V11.3629C1.21124 12.3318 2.00106 13.1216 2.96994 13.1216C3.93882 13.1216 4.72863 12.3318 4.72863 11.3629V4.48799C4.72863 4.04672 4.3705 3.68858 3.92922 3.68858C3.48795 3.68858 3.12982 4.04672 3.12982 4.48799V10.7234C3.12982 10.9888 2.91558 11.203 2.65017 11.203C2.38477 11.203 2.17053 10.9888 2.17053 10.7234V4.48799C2.17053 3.51911 2.96034 2.72929 3.92922 2.72929C4.89811 2.72929 5.68792 3.51911 5.68792 4.48799V11.3629C5.68792 12.8626 4.46962 14.0809 2.96994 14.0809C1.47025 14.0809 0.251953 12.8626 0.251953 11.3629V4.00835C0.251953 1.98105 1.90193 0.331074 3.92922 0.331074C5.95652 0.331074 7.6065 1.98105 7.6065 4.00835Z" fill="#A1A4AC"/>
</svg>
