<svg width="58" height="57" viewBox="0 0 58 57" fill="none" xmlns="http://www.w3.org/2000/svg">
<rect opacity="0.1" y="-3.05176e-05" width="57.6406" height="57" rx="10" fill="#1A55AF"/>
<path fill-rule="evenodd" clip-rule="evenodd" d="M17.1802 20.6394H14.5431C13.9598 20.6394 13.4883 21.1057 13.4883 21.6825C13.4883 22.2593 13.9598 22.7256 14.5431 22.7256H15.5979V23.7687C15.5979 24.3455 16.0694 24.8118 16.6528 24.8118C17.235 24.8118 17.7076 24.3455 17.7076 23.7687V22.6724C18.909 22.4304 19.8172 21.3779 19.8172 20.1178C19.8172 18.6794 18.6337 17.5101 17.1802 17.5101H16.1253C15.8342 17.5101 15.5979 17.2754 15.5979 16.9885C15.5979 16.7017 15.8342 16.467 16.1253 16.467H18.7624C19.3447 16.467 19.8172 16.0007 19.8172 15.4239C19.8172 14.847 19.3447 14.3808 18.7624 14.3808H17.7076V13.3377C17.7076 12.7608 17.235 12.2946 16.6528 12.2946C16.0694 12.2946 15.5979 12.7608 15.5979 13.3377V14.434C14.3954 14.676 13.4883 15.7285 13.4883 16.9885C13.4883 18.427 14.6707 19.5963 16.1253 19.5963H17.1802C17.4702 19.5963 17.7076 19.831 17.7076 20.1178C17.7076 20.4047 17.4702 20.6394 17.1802 20.6394" fill="#1A55AF"/>
<path fill-rule="evenodd" clip-rule="evenodd" d="M34.5843 36.286H18.762C18.1807 36.286 17.7071 35.8186 17.7071 35.2429V30.4592L19.071 31.8079C19.4835 32.2158 20.1501 32.2158 20.5625 31.8079C20.975 31.4001 20.975 30.7408 20.5625 30.333L17.3981 27.2037C16.9856 26.7958 16.319 26.7958 15.9065 27.2037L12.7421 30.333C12.3296 30.7408 12.3296 31.4001 12.7421 31.8079C13.1545 32.2158 13.8212 32.2158 14.2336 31.8079L15.5975 30.4592V35.2429C15.5975 36.9681 17.0173 38.3722 18.762 38.3722H34.5843C35.1666 38.3722 35.6391 37.9059 35.6391 37.3291C35.6391 36.7522 35.1666 36.286 34.5843 36.286" fill="#1A55AF"/>
<path fill-rule="evenodd" clip-rule="evenodd" d="M39.3304 35.2427H41.9675C42.5508 35.2427 43.0223 34.7765 43.0223 34.1996C43.0223 33.6228 42.5508 33.1565 41.9675 33.1565H40.9127V32.1134C40.9127 31.5366 40.4412 31.0703 39.8578 31.0703C39.2756 31.0703 38.803 31.5366 38.803 32.1134V33.2097C37.6016 33.4517 36.6934 34.5042 36.6934 35.7643C36.6934 37.2027 37.8769 38.372 39.3304 38.372H40.3853C40.6764 38.372 40.9127 38.6067 40.9127 38.8936C40.9127 39.1804 40.6764 39.4151 40.3853 39.4151H37.7482C37.1659 39.4151 36.6934 39.8814 36.6934 40.4582C36.6934 41.0351 37.1659 41.5013 37.7482 41.5013H38.803V42.5444C38.803 43.1213 39.2756 43.5875 39.8578 43.5875C40.4412 43.5875 40.9127 43.1213 40.9127 42.5444V41.4481C42.1152 41.2061 43.0223 40.1537 43.0223 38.8936C43.0223 37.4552 41.8399 36.2858 40.3853 36.2858H39.3304C39.0403 36.2858 38.803 36.0511 38.803 35.7643C38.803 35.4774 39.0403 35.2427 39.3304 35.2427" fill="#1A55AF"/>
<path fill-rule="evenodd" clip-rule="evenodd" d="M43.7684 24.0743C43.356 23.6664 42.6893 23.6664 42.2769 24.0743L40.913 25.423V20.6393C40.913 18.914 39.4932 17.51 37.7485 17.51H21.9262C21.3439 17.51 20.8713 17.9763 20.8713 18.5531C20.8713 19.13 21.3439 19.5962 21.9262 19.5962H37.7485C38.3297 19.5962 38.8034 20.0635 38.8034 20.6393V25.423L37.4395 24.0743C37.027 23.6664 36.3604 23.6664 35.948 24.0743C35.5355 24.4821 35.5355 25.1414 35.948 25.5492L39.1124 28.6785C39.5249 29.0864 40.1915 29.0864 40.6039 28.6785L43.7684 25.5492C44.1809 25.1414 44.1809 24.4821 43.7684 24.0743" fill="#1A55AF"/>
</svg>
