<svg width="58" height="57" viewBox="0 0 58 57" fill="none" xmlns="http://www.w3.org/2000/svg">
<rect opacity="0.1" y="-3.05176e-05" width="57.6406" height="57" rx="10" fill="#427A0A"/>
<path fill-rule="evenodd" clip-rule="evenodd" d="M17.7067 41.502H19.8164V31.0707H17.7067V41.502ZM20.8712 43.5882H16.6518C16.0684 43.5882 15.5969 43.122 15.5969 42.5451V30.0275C15.5969 29.4506 16.0684 28.9843 16.6518 28.9843H20.8712C21.4546 28.9843 21.9261 29.4506 21.9261 30.0275V42.5451C21.9261 43.122 21.4546 43.5882 20.8712 43.5882Z" fill="#427A0A"/>
<path fill-rule="evenodd" clip-rule="evenodd" d="M27.2002 41.502H29.3099V22.7255H27.2002V41.502ZM30.3648 43.5882H26.1453C25.562 43.5882 25.0905 43.1219 25.0905 42.5451V21.6823C25.0905 21.1055 25.562 20.6392 26.1453 20.6392H30.3648C30.9481 20.6392 31.4196 21.1055 31.4196 21.6823V42.5451C31.4196 43.1219 30.9481 43.5882 30.3648 43.5882Z" fill="#427A0A"/>
<path fill-rule="evenodd" clip-rule="evenodd" d="M36.6943 41.502H38.804V14.3804H36.6943V41.502ZM39.8588 43.5882H35.6393C35.056 43.5882 34.5845 43.1219 34.5845 42.5451V13.3372C34.5845 12.7604 35.056 12.2941 35.6393 12.2941H39.8588C40.4421 12.2941 40.9136 12.7604 40.9136 13.3372V42.5451C40.9136 43.1219 40.4421 43.5882 39.8588 43.5882Z" fill="#427A0A"/>
</svg>
