<svg width="11" height="13" viewBox="0 0 11 13" fill="none" xmlns="http://www.w3.org/2000/svg">
<path d="M10.1175 0.4422H0.833294C0.548579 0.4422 0.317505 0.672758 0.317505 0.957989V12.8211L2.38066 11.2738L3.92803 12.8211L5.4754 11.2738L7.02277 12.8211L8.57014 11.2738L10.6333 12.8211V0.957989C10.6333 0.672758 10.4022 0.4422 10.1175 0.4422ZM5.99119 8.69483H2.38066V7.66325H5.99119V8.69483ZM5.99119 6.63167H2.38066V5.60009H5.99119V6.63167ZM5.99119 4.56851H2.38066V3.53694H5.99119V4.56851ZM8.57014 8.69483H7.02277V7.66325H8.57014V8.69483ZM8.57014 6.63167H7.02277V5.60009H8.57014V6.63167ZM8.57014 4.56851H7.02277V3.53694H8.57014V4.56851Z" fill="white"/>
</svg>
