<svg width="8" height="15" viewBox="0 0 8 15" fill="none" xmlns="http://www.w3.org/2000/svg">
<path d="M7.6082 4.66173V10.4175C7.6082 10.6829 7.39396 10.8971 7.12856 10.8971C6.86316 10.8971 6.64892 10.6829 6.64892 10.4175V4.66173C6.64892 3.16204 5.43062 1.94374 3.93093 1.94374C2.43125 1.94374 1.21295 3.16204 1.21295 4.66173V12.0163C1.21295 12.9852 2.00276 13.775 2.97165 13.775C3.94053 13.775 4.73034 12.9852 4.73034 12.0163V5.14137C4.73034 4.7001 4.37221 4.34196 3.93093 4.34196C3.48966 4.34196 3.13153 4.7001 3.13153 5.14137V11.3767C3.13153 11.6421 2.91729 11.8564 2.65188 11.8564C2.38648 11.8564 2.17224 11.6421 2.17224 11.3767V5.14137C2.17224 4.17249 2.96205 3.38268 3.93093 3.38268C4.89981 3.38268 5.68963 4.17249 5.68963 5.14137V12.0163C5.68963 13.516 4.47133 14.7343 2.97165 14.7343C1.47196 14.7343 0.253662 13.516 0.253662 12.0163V4.66173C0.253662 2.63443 1.90364 0.984455 3.93093 0.984455C5.95823 0.984455 7.6082 2.63443 7.6082 4.66173Z" fill="#A1A4AC"/>
</svg>
