<svg width="58" height="57" viewBox="0 0 58 57" fill="none" xmlns="http://www.w3.org/2000/svg">
<rect opacity="0.1" y="-3.05176e-05" width="57.6406" height="57" rx="10" fill="#FA5F1C"/>
<path fill-rule="evenodd" clip-rule="evenodd" d="M38.6045 27.0817L35.249 24.0743L30.7468 35.8743L38.6045 27.0817ZM30.5909 30.3726L33.8135 21.9305C33.8135 21.9284 33.8146 21.9263 33.8156 21.9242L34.6342 19.7795L30.5909 18.2325V30.3726ZM28.7334 35.2431H22.5329L27.9433 37.3137L28.7334 35.2431ZM27.5834 39.4136L21.7974 37.199L26.1097 41.0628L27.5834 39.4136ZM17.9327 33.1569H28.4813V14.3804H17.9327V33.1569ZM40.8758 27.6908L26.9833 43.2356C26.7966 43.4453 26.5329 43.5715 26.2512 43.5861C26.2322 43.5872 26.2122 43.5882 26.1922 43.5882C25.9316 43.5882 25.6784 43.4922 25.4843 43.318L16.1699 34.9708C16.1657 34.9677 16.1647 34.9625 16.1594 34.9583C16.1541 34.9531 16.1467 34.95 16.1425 34.9448C16.0803 34.8843 16.0402 34.8092 15.9938 34.7361C15.9706 34.6986 15.9368 34.6663 15.9189 34.6277C15.9168 34.6224 15.9136 34.6204 15.9125 34.6162C15.8893 34.5651 15.8883 34.5056 15.8746 34.4514C15.8725 34.4451 15.8714 34.4378 15.8693 34.4305C15.8545 34.3658 15.8282 34.3053 15.826 34.2396C15.825 34.2313 15.826 34.2229 15.826 34.2146C15.826 34.2094 15.8229 34.2052 15.8229 34.2V13.3372C15.8229 12.7604 16.2955 12.2941 16.8777 12.2941H29.5361C30.1194 12.2941 30.5909 12.7604 30.5909 13.3372V15.9951L36.3705 18.2066C36.9117 18.4131 37.1817 19.0129 36.9771 19.5481L36.0509 21.9754L40.7935 26.2273C41.2208 26.6111 41.2577 27.2631 40.8758 27.6908ZM22.1522 22.2038C22.1522 22.4917 22.3885 22.7254 22.6796 22.7254H23.7345C25.1891 22.7254 26.3716 23.8947 26.3716 25.3332C26.3716 26.5933 25.4644 27.6459 24.2619 27.8879V28.9842C24.2619 29.5611 23.7904 30.0273 23.207 30.0273C22.6247 30.0273 22.1522 29.5611 22.1522 28.9842V27.9411H21.0973C20.515 27.9411 20.0424 27.4748 20.0424 26.8979C20.0424 26.3211 20.515 25.8548 21.0973 25.8548H23.7355C24.0256 25.8548 24.2619 25.6211 24.2619 25.3332C24.2619 25.0464 24.0256 24.8117 23.7345 24.8117H22.6796C21.226 24.8117 20.0424 23.6423 20.0424 22.2038C20.0424 20.9437 20.9507 19.8912 22.1522 19.6492V18.5528C22.1522 17.976 22.6247 17.5097 23.207 17.5097C23.7904 17.5097 24.2619 17.976 24.2619 18.5528V19.596H25.3167C25.9001 19.596 26.3716 20.0623 26.3716 20.6391C26.3716 21.216 25.9001 21.6822 25.3167 21.6822H22.6796C22.3885 21.6822 22.1522 21.9169 22.1522 22.2038Z" fill="#FA5F1C"/>
</svg>
