<svg width="8" height="14" viewBox="0 0 8 14" fill="none" xmlns="http://www.w3.org/2000/svg">
<path d="M7.98943 3.77147V9.5272C7.98943 9.7926 7.77519 10.0068 7.50979 10.0068C7.24438 10.0068 7.03014 9.7926 7.03014 9.5272V3.77147C7.03014 2.27178 5.81185 1.05348 4.31216 1.05348C2.81247 1.05348 1.59418 2.27178 1.59418 3.77147V11.126C1.59418 12.0949 2.38399 12.8847 3.35287 12.8847C4.32175 12.8847 5.11157 12.0949 5.11157 11.126V4.25111C5.11157 3.80984 4.75343 3.45171 4.31216 3.45171C3.87089 3.45171 3.51275 3.80984 3.51275 4.25111V10.4865C3.51275 10.7519 3.29851 10.9661 3.03311 10.9661C2.7677 10.9661 2.55346 10.7519 2.55346 10.4865V4.25111C2.55346 3.28223 3.34328 2.49242 4.31216 2.49242C5.28104 2.49242 6.07085 3.28223 6.07085 4.25111V11.126C6.07085 12.6257 4.85256 13.844 3.35287 13.844C1.85318 13.844 0.634888 12.6257 0.634888 11.126V3.77147C0.634888 1.74417 2.28486 0.0941965 4.31216 0.0941965C6.33945 0.0941965 7.98943 1.74417 7.98943 3.77147Z" fill="#A1A4AC"/>
</svg>
