<svg width="11" height="13" viewBox="0 0 11 13" fill="none" xmlns="http://www.w3.org/2000/svg">
<path d="M8.57014 1.6001L7.02277 0.0527344L5.4754 1.6001L3.92803 0.0527344L2.38066 1.6001L0.317505 0.0527344V11.9159C0.317505 12.2011 0.548579 12.4317 0.833294 12.4317H10.1175C10.4022 12.4317 10.6333 12.2011 10.6333 11.9159V0.0527344L8.57014 1.6001ZM5.99119 9.85273H2.38066V8.82115H5.99119V9.85273ZM5.99119 7.78958H2.38066V6.758H5.99119V7.78958ZM5.99119 5.72642H2.38066V4.69484H5.99119V5.72642ZM8.57014 9.85273H7.02277V8.82115H8.57014V9.85273ZM8.57014 7.78958H7.02277V6.758H8.57014V7.78958ZM8.57014 5.72642H7.02277V4.69484H8.57014V5.72642Z" fill="white"/>
</svg>
