<svg width="79" height="78" viewBox="0 0 79 78" fill="none" xmlns="http://www.w3.org/2000/svg">
<g filter="url(#filter0_d_1_454)">
<rect x="24.0007" y="19.5473" width="30.9474" height="30.9474" rx="7.73684" fill="#0890FE"/>
</g>
<path d="M39.6886 37.0843L40.7202 36.0527L39.9909 35.3234L38.9593 36.355L38.1413 35.5369L39.1729 34.5054L38.4435 33.776L37.412 34.8076L36.7265 34.1226C36.6297 34.0259 36.4986 33.9716 36.3618 33.9716C36.225 33.9716 36.0939 34.0259 35.9971 34.1226L35.2235 34.8963C34.7061 35.413 34.3888 36.0965 34.328 36.8251C34.2671 37.5537 34.4667 38.2803 34.8913 38.8756L33.4368 40.3302C33.3875 40.3777 33.3482 40.4347 33.3212 40.4976C33.2941 40.5605 33.2799 40.6282 33.2793 40.6967C33.2787 40.7652 33.2918 40.8331 33.3177 40.8965C33.3436 40.9599 33.3819 41.0175 33.4304 41.0659C33.4788 41.1143 33.5364 41.1526 33.5998 41.1785C33.6632 41.2045 33.7311 41.2175 33.7996 41.2169C33.8681 41.2163 33.9357 41.2021 33.9987 41.1751C34.0616 41.1481 34.1185 41.1088 34.1661 41.0595L35.6206 39.605C36.216 40.0296 36.9428 40.2292 37.6715 40.1683C38.4003 40.1073 39.0838 39.7899 39.6004 39.2723L40.3741 38.4986C40.4708 38.4019 40.5251 38.2707 40.5251 38.1339C40.5251 37.9972 40.4708 37.866 40.3741 37.7693L39.6886 37.0843Z" fill="white"/>
<path d="M42.2233 35.9196C42.32 36.0163 42.4512 36.0706 42.588 36.0706C42.7247 36.0706 42.8559 36.0163 42.9526 35.9196L43.7263 35.1459C44.2437 34.6292 44.561 33.9458 44.6218 33.2171C44.6826 32.4885 44.483 31.7619 44.0585 31.1666L45.513 29.7121C45.5623 29.6645 45.6016 29.6076 45.6286 29.5447C45.6556 29.4817 45.6699 29.414 45.6704 29.3456C45.671 29.2771 45.658 29.2092 45.6321 29.1458C45.6061 29.0824 45.5678 29.0248 45.5194 28.9764C45.471 28.9279 45.4134 28.8896 45.35 28.8637C45.2866 28.8378 45.2187 28.8247 45.1502 28.8253C45.0817 28.8259 45.014 28.8401 44.9511 28.8672C44.8882 28.8942 44.8313 28.9335 44.7837 28.9828L43.3292 30.4373C42.7337 30.0127 42.007 29.8131 41.2782 29.874C40.5495 29.9349 39.866 30.2524 39.3493 30.77L38.5756 31.5436C38.4789 31.6404 38.4246 31.7715 38.4246 31.9083C38.4246 32.0451 38.4789 32.1762 38.5756 32.273L42.2233 35.9196Z" fill="white"/>
<defs>
<filter id="filter0_d_1_454" x="0.790211" y="0.205231" width="77.3684" height="77.3684" filterUnits="userSpaceOnUse" color-interpolation-filters="sRGB">
<feFlood flood-opacity="0" result="BackgroundImageFix"/>
<feColorMatrix in="SourceAlpha" type="matrix" values="0 0 0 0 0 0 0 0 0 0 0 0 0 0 0 0 0 0 127 0" result="hardAlpha"/>
<feOffset dy="3.86842"/>
<feGaussianBlur stdDeviation="11.6053"/>
<feColorMatrix type="matrix" values="0 0 0 0 0 0 0 0 0 0 0 0 0 0 0 0 0 0 0.05 0"/>
<feBlend mode="normal" in2="BackgroundImageFix" result="effect1_dropShadow_1_454"/>
<feBlend mode="normal" in="SourceGraphic" in2="effect1_dropShadow_1_454" result="shape"/>
</filter>
</defs>
</svg>
