<svg width="52" height="16" viewBox="0 0 52 16" fill="none" xmlns="http://www.w3.org/2000/svg">
<path d="M50.859 14.1163L48.1197 11.377C49.1702 10.1349 49.7 8.53484 49.5983 6.91125C49.4966 5.28765 48.7714 3.76617 47.5742 2.66481C46.3769 1.56345 44.8003 0.967434 43.1739 1.00134C41.5475 1.03525 39.9971 1.69645 38.8468 2.84675C37.6965 3.99706 37.0353 5.54744 37.0014 7.17386C36.9675 8.80028 37.5635 10.3769 38.6648 11.5741C39.7662 12.7714 41.2877 13.4966 42.9113 13.5983C44.5349 13.6999 46.1349 13.1701 47.377 12.1196L50.1164 14.8589C50.216 14.9518 50.3477 15.0023 50.4838 14.9999C50.62 14.9975 50.7498 14.9423 50.8461 14.8461C50.9424 14.7498 50.9975 14.6199 50.9999 14.4838C51.0023 14.3477 50.9518 14.2159 50.859 14.1163V14.1163ZM38.0515 7.30588C38.0515 6.26665 38.3597 5.25076 38.937 4.38668C39.5144 3.52259 40.335 2.84912 41.2951 2.45142C42.2553 2.05373 43.3117 1.94967 44.331 2.15242C45.3503 2.35516 46.2865 2.8556 47.0214 3.59044C47.7562 4.32529 48.2566 5.26153 48.4594 6.28079C48.6621 7.30005 48.5581 8.35654 48.1604 9.31666C47.7627 10.2768 47.0892 11.0974 46.2251 11.6748C45.361 12.2521 44.3451 12.5603 43.3059 12.5603C41.9124 12.5603 40.5759 12.0067 39.5905 11.0213C38.6051 10.0359 38.0515 8.69944 38.0515 7.30588V7.30588Z" fill="#623CE7" stroke="#623CE7" stroke-width="0.5"/>
<path d="M0.916385 13.9847L4.75018 13.2179C5.04667 13.1586 5.31898 13.0129 5.53279 12.7991L11.6994 6.63246L7.3675 2.30057L1.2009 8.46718C0.987089 8.68098 0.841354 8.95329 0.782055 9.24979L0.0152966 13.0836C-0.0918694 13.6194 0.380554 14.0918 0.916385 13.9847Z" fill="#623CE7"/>
<path d="M13.3271 1.75575L12.2441 0.672781C11.347 -0.224383 9.89239 -0.224382 8.99522 0.672782L7.36743 2.30057L11.6993 6.63247L13.3271 5.00467C14.2243 4.10751 14.2243 2.65292 13.3271 1.75575Z" fill="#623CE7"/>
</svg>
