<svg width="39" height="26" viewBox="0 0 39 26" fill="none" xmlns="http://www.w3.org/2000/svg">
<g opacity="0.01">
<rect y="-3.05176e-05" width="38.71" height="25.6" fill="white"/>
</g>
<rect x="14.25" y="4.45996" width="10.21" height="16.68" fill="#F26122"/>
<path d="M15.35 12.8C15.3331 9.55352 16.8077 6.47904 19.35 4.45998C15.0002 1.03928 8.75192 1.536 4.99726 5.60099C1.24261 9.66598 1.24261 15.934 4.99726 19.999C8.75192 24.064 15.0002 24.5607 19.35 21.14C16.8077 19.1209 15.3331 16.0465 15.35 12.8Z" fill="#EA1D25"/>
<path fill-rule="evenodd" clip-rule="evenodd" d="M35.49 19.03V19.37H35.43V19.03H35.29V18.96H35.64V19.03H35.49ZM36.17 18.96V19.37H36.1V19.06L35.99 19.33H35.91L35.79 19.06V19.37H35.72V18.96H35.82L35.95 19.25L36.07 18.96H36.17Z" fill="#F69E1E"/>
<path d="M36.51 12.8C36.5074 16.8593 34.1888 20.5614 30.5378 22.3358C26.8869 24.1102 22.5434 23.646 19.35 21.14C23.95 17.5179 24.7466 10.8543 21.13 6.24997C20.6115 5.58324 20.0138 4.98215 19.35 4.45997C22.5434 1.95397 26.8869 1.48972 30.5378 3.26415C34.1888 5.03858 36.5074 8.74063 36.51 12.8V12.8Z" fill="#F69E1E"/>
</svg>
