<svg width="32" height="32" viewBox="0 0 32 32" fill="none" xmlns="http://www.w3.org/2000/svg">
<rect x="0.775269" y="0.765625" width="30.5551" height="30.5551" rx="7.63879" fill="#F7F7F9"/>
<path d="M16.4852 22.919H15.6223C14.9243 22.919 14.3565 22.3512 14.3565 21.6533V21.3613C14.0597 21.2665 13.7715 21.1469 13.4945 21.0035L13.2876 21.2104C12.7865 21.7121 11.9838 21.6974 11.4973 21.2102L10.8874 20.6003C10.4 20.1135 10.386 19.3111 10.8876 18.8101L11.0943 18.6033C10.951 18.3264 10.8313 18.0381 10.7365 17.7414H10.4446C9.74668 17.7414 9.17883 17.1735 9.17883 16.4756V15.6126C9.17883 14.9147 9.74668 14.3469 10.4446 14.3469H10.7365C10.8314 14.0501 10.951 13.7619 11.0943 13.4849L10.8874 13.278C10.3862 12.7773 10.4 11.9748 10.8876 11.4877L11.4976 10.8778C11.9852 10.3895 12.7877 10.3773 13.2878 10.878L13.4945 11.0847C13.7715 10.9414 14.0598 10.8217 14.3565 10.7269V10.435C14.3565 9.73703 14.9243 9.1692 15.6223 9.1692H16.4852C17.1832 9.1692 17.751 9.73703 17.751 10.435V10.7269C18.0477 10.8217 18.336 10.9414 18.613 11.0847L18.8198 10.8778C19.3209 10.3761 20.1236 10.3908 20.6101 10.878L21.22 11.4879C21.7074 11.9747 21.7215 12.7771 21.2199 13.2782L21.0132 13.4849C21.1565 13.7619 21.2761 14.0501 21.3709 14.3469H21.6629C22.3608 14.3469 22.9286 14.9147 22.9286 15.6126V16.4756C22.9286 17.1735 22.3608 17.7414 21.6629 17.7414H21.3709C21.2761 18.0381 21.1565 18.3264 21.0132 18.6033L21.22 18.8102C21.7213 19.311 21.7075 20.1134 21.2199 20.6005L20.6099 21.2104C20.1223 21.6988 19.3198 21.711 18.8197 21.2103L18.613 21.0036C18.336 21.1469 18.0477 21.2665 17.751 21.3614V21.6533C17.751 22.3512 17.1832 22.919 16.4852 22.919V22.919ZM13.6292 20.1575C14.0139 20.3851 14.428 20.557 14.86 20.6684C15.0379 20.7143 15.1622 20.8748 15.1622 21.0585V21.6533C15.1622 21.907 15.3686 22.1134 15.6223 22.1134H16.4852C16.7389 22.1134 16.9454 21.907 16.9454 21.6533V21.0585C16.9454 20.8748 17.0696 20.7143 17.2475 20.6684C17.6795 20.557 18.0936 20.3851 18.4783 20.1575C18.6366 20.0639 18.8382 20.0894 18.9682 20.2194L19.3895 20.6407C19.5712 20.8226 19.8629 20.8184 20.0401 20.6409L20.6504 20.0306C20.8272 19.8541 20.8331 19.5623 20.6506 19.3801L20.2291 18.9586C20.0991 18.8285 20.0736 18.627 20.1672 18.4687C20.3947 18.0839 20.5666 17.6698 20.6781 17.2379C20.724 17.06 20.8844 16.9357 21.0681 16.9357H21.6629C21.9166 16.9357 22.123 16.7293 22.123 16.4756V15.6127C22.123 15.359 21.9166 15.1525 21.6629 15.1525H21.0681C20.8844 15.1525 20.724 15.0283 20.6781 14.8504C20.5666 14.4184 20.3947 14.0043 20.1672 13.6196C20.0736 13.4613 20.0991 13.2597 20.2291 13.1297L20.6504 12.7084C20.8326 12.5265 20.8278 12.2348 20.6506 12.0578L20.0403 11.4475C19.8634 11.2704 19.5717 11.2652 19.3897 11.4474L18.9683 11.8689C18.8382 11.9989 18.6366 12.0244 18.4784 11.9308C18.0936 11.7032 17.6795 11.5313 17.2476 11.4199C17.0697 11.374 16.9454 11.2135 16.9454 11.0298V10.435C16.9454 10.1813 16.7389 9.97486 16.4852 9.97486H15.6223C15.3686 9.97486 15.1622 10.1813 15.1622 10.435V11.0298C15.1622 11.2135 15.0379 11.3739 14.86 11.4198C14.4281 11.5313 14.014 11.7032 13.6292 11.9307C13.4709 12.0243 13.2693 11.9988 13.1393 11.8688L12.718 11.4475C12.5363 11.2656 12.2446 11.2698 12.0674 11.4473L11.4571 12.0576C11.2804 12.2342 11.2744 12.5259 11.457 12.7082L11.8784 13.1297C12.0085 13.2597 12.0339 13.4613 11.9403 13.6196C11.7128 14.0043 11.5409 14.4184 11.4295 14.8503C11.3835 15.0282 11.2231 15.1525 11.0394 15.1525H10.4446C10.1909 15.1525 9.98449 15.3589 9.98449 15.6126V16.4756C9.98449 16.7293 10.1909 16.9357 10.4446 16.9357H11.0394C11.2231 16.9357 11.3835 17.06 11.4294 17.2378C11.5409 17.6698 11.7128 18.0839 11.9403 18.4686C12.0339 18.6269 12.0084 18.8285 11.8784 18.9585L11.4571 19.3799C11.275 19.5618 11.2797 19.8534 11.4569 20.0304L12.0672 20.6407C12.2441 20.8178 12.5359 20.823 12.7178 20.6409L13.1392 20.2194C13.2351 20.1236 13.4344 20.0423 13.6292 20.1575V20.1575Z" fill="#131313"/>
<path d="M16.0534 19.0358C14.4038 19.0358 13.0618 17.6937 13.0618 16.0441C13.0618 14.3945 14.4038 13.0525 16.0534 13.0525C17.7031 13.0525 19.0451 14.3945 19.0451 16.0441C19.0451 17.6937 17.7031 19.0358 16.0534 19.0358V19.0358ZM16.0534 13.8581C14.848 13.8581 13.8674 14.8388 13.8674 16.0441C13.8674 17.2495 14.8481 18.2301 16.0534 18.2301C17.2588 18.2301 18.2394 17.2495 18.2394 16.0441C18.2394 14.8388 17.2588 13.8581 16.0534 13.8581V13.8581Z" fill="#131313"/>
</svg>
